<?xml version="1.0" encoding="utf-8"?>
<!-- Generator: Adobe Illustrator 26.3.1, SVG Export Plug-In . SVG Version: 6.00 Build 0)  -->
<svg version="1.1" id="Layer_1" xmlns="http://www.w3.org/2000/svg" xmlns:xlink="http://www.w3.org/1999/xlink" x="0px" y="0px"
	 viewBox="0 0 180 180" style="enable-background:new 0 0 180 180;" xml:space="preserve">
<style type="text/css">
	.st0{display:none;}
	.st1{fill:#282828;}
	.st2{fill:#EF4538;}
	.st3{fill-rule:evenodd;clip-rule:evenodd;fill:#FFFFFF;}
	.st4{fill:#383838;}
</style>
<rect class="st0" width="180" height="180"/>
<g>
	<g>
		<path class="st1" d="M106.7,86.6c-1.4,0-2.7,0-4,0c0-0.2,0-0.3,0-0.5c0-3.1,0-6.3,0-9.4c0-0.4,0-0.8-0.1-1.2
			c-0.2-0.7-0.6-1.1-1.2-1.3c-1.3-0.4-2.5-0.2-3.6,0.6c-0.2,0.2-0.3,0.4-0.3,0.8c0,3.5,0,7,0,10.5c0,0.2,0,0.3,0,0.5
			c-1.3,0-2.7,0-4,0c0-6.8,0-13.6,0-20.4c1.3-0.1,2.6-0.1,4-0.2c0,1.9,0,3.8,0,5.8c0.2-0.1,0.3-0.2,0.4-0.2c1.8-1.4,5-1.5,6.8-0.2
			c1.1,0.8,1.7,1.9,1.9,3.3c0.1,0.7,0.2,1.4,0.2,2.2c0,3.1,0,6.2,0,9.3C106.7,86.2,106.7,86.4,106.7,86.6z"/>
		<path class="st1" d="M123.7,78.7c0,1.5-0.1,2.9-0.6,4.3c-0.7,1.9-1.9,3.1-3.8,3.6c-2,0.5-4,0.5-6-0.1s-3.1-2.1-3.6-4
			c-0.7-2.7-0.7-5.4,0.1-8c0.6-1.9,1.9-3.2,3.9-3.7s4-0.5,6,0.1c2,0.7,3.2,2.2,3.7,4.2C123.5,76.2,123.7,77.9,123.7,78.7z
			 M119.5,78.6c0-0.9-0.1-2-0.3-3c-0.2-1-0.9-1.7-2-1.8c-0.3,0-0.7,0-1.1,0c-1.5,0-2.3,0.7-2.6,2.2c-0.3,1.7-0.3,3.3-0.1,5
			c0.1,0.5,0.2,1,0.4,1.5c0.4,1,1.3,1.3,2.3,1.3c1.7,0,2.7-0.3,3.1-2.2C119.4,80.5,119.5,79.6,119.5,78.6z"/>
		<path class="st1" d="M76.9,86.6c-1.4,0-2.7,0-4,0c0-0.2,0-0.3,0-0.5c0-3.1,0-6.3,0-9.4c0-0.4-0.1-0.8-0.1-1.2
			c-0.1-0.7-0.6-1.1-1.2-1.3c-1.3-0.4-2.5-0.2-3.6,0.6c-0.3,0.2-0.4,0.5-0.4,0.9c0,3.5,0,7,0,10.4c0,0.2,0,0.3,0,0.5
			c-1.4,0-2.7,0-4,0c0-5.2,0-10.5,0-15.8c0.5,0,1.1-0.1,1.6-0.1c0.1,0,0.2,0,0.3,0c1,0,1,0,1.4,0.9c0.1,0.1,0.1,0.3,0.2,0.4
			c0.4-0.3,0.8-0.6,1.2-0.8c2.1-1,4.2-1.2,6.2,0c1.3,0.8,2,2,2.3,3.5c0.1,0.6,0.2,1.3,0.2,1.9c0,3.2,0,6.3,0,9.5
			C76.9,86.2,76.9,86.4,76.9,86.6z"/>
		<path class="st1" d="M89.7,74.6c-1.3-0.5-2.5-0.7-3.8-0.8c-0.6,0-1.1,0.1-1.7,0.2c-0.5,0.1-0.8,0.5-0.9,1.1s0.3,1,0.8,1.2
			c0.7,0.3,1.4,0.5,2.1,0.8s1.4,0.5,2.1,0.8c1.8,0.9,2.6,2.5,2.3,4.4c-0.1,0.9-0.3,1.8-0.9,2.6c-0.7,1-1.7,1.5-2.9,1.7
			c-2.3,0.4-4.5,0.3-6.7-0.6c-0.4-0.2-0.5-0.3-0.4-0.8c0.2-0.9,0.2-1.8,0.4-2.8c1.2,0.7,2.5,1,3.8,1.1c0.7,0,1.4,0,2-0.2
			c0.6-0.1,1-0.7,1-1.3c0.1-0.6-0.3-1-0.8-1.3c-1.1-0.4-2.2-0.8-3.2-1.2c-1.2-0.4-2.2-1.1-2.8-2.2c-1.3-2.4-0.1-5.5,2.5-6.5
			c1.5-0.6,3-0.6,4.5-0.4c0.9,0.1,1.8,0.4,2.6,0.6c0.1,0,0.3,0.2,0.3,0.3C89.9,72.5,89.8,73.5,89.7,74.6z"/>
		<path class="st1" d="M148.9,82.5c1,0.5,2,0.9,3.1,1c0.8,0.1,1.6,0.1,2.3,0c1-0.1,1.6-0.9,1.4-1.8c-0.1-0.4-0.3-0.7-0.7-0.8
			c-0.8-0.3-1.7-0.7-2.5-1c-1.1-0.4-2.3-0.8-3.1-1.7c-1.3-1.3-1.2-3.7-0.6-5c0.7-1.6,2.1-2.3,3.7-2.6c2.1-0.4,4.1-0.1,6.1,0.6
			c0.1,0,0.3,0.2,0.3,0.3c-0.1,0.9-0.2,1.9-0.3,2.8c0,0.1-0.1,0.1-0.1,0.2c-1.2-0.5-2.4-0.7-3.7-0.7c-0.6,0-1.2,0.1-1.8,0.2
			c-0.5,0.1-0.7,0.5-0.8,1.1c0,0.5,0.2,0.9,0.6,1.1c0.8,0.3,1.7,0.6,2.5,0.9c0.6,0.2,1.3,0.5,1.9,0.8c1.8,0.9,2.4,2.5,2.2,4.3
			c-0.1,1.2-0.4,2.2-1.2,3.1c-0.8,0.8-1.8,1.2-2.8,1.4c-2.1,0.4-4.3,0.2-6.3-0.6c-0.6-0.2-0.6-0.2-0.5-0.9c0.1-0.8,0.2-1.5,0.3-2.2
			C148.8,82.8,148.8,82.7,148.9,82.5z"/>
		<path class="st1" d="M146.3,83.5c0.1,1,0.1,1.9,0.2,2.9c-1.1,0.4-2.2,0.5-3.4,0.4c-0.8-0.1-1.6-0.3-2.3-0.8
			c-1.1-0.8-1.6-1.9-1.7-3.2c-0.1-1-0.1-1.9-0.1-2.9c0-1.9,0-3.8,0-5.7c0-0.2,0-0.3,0-0.5c-0.6,0-1.1,0-1.8,0c0-1,0-2,0-3
			c0.6,0,1.3,0,1.9,0c0.2-0.9,0.4-1.8,0.5-2.8c0.2-0.9,0.2-0.9,1-0.9c0.7-0.1,1.5-0.1,2.2-0.2c0,1.3,0,2.6,0,3.9c1.2,0,2.4,0,3.6,0
			c0,1,0,2,0,3c-1.2,0-2.3,0-3.5,0c0,0.2,0,0.3,0,0.5c0,2.5,0,5.1,0,7.6c0,1.6,0.9,1.9,2.2,1.9C145.6,83.7,145.9,83.6,146.3,83.5z"
			/>
		<path class="st1" d="M126.3,70.8c1.1-0.1,2.1-0.1,3.1-0.2c0.1,0.9,0.2,1.8,0.4,2.6h0.1c0.1-0.1,0.2-0.3,0.3-0.4
			c1.2-2,3.3-2.8,5.5-2.2c0.1,0,0.3,0.2,0.3,0.3c-0.1,1.2-0.1,2.4-0.2,3.6c-0.8,0-1.6-0.2-2.3-0.1c-1.6,0.2-2.8,1.4-3.1,3
			c-0.1,0.3-0.1,0.7-0.1,1c0,2.6,0,5.1,0,7.7c0,0.1,0,0.3,0,0.5c-1.4,0-2.7,0-4,0C126.3,81.3,126.3,76.1,126.3,70.8z"/>
		<path class="st1" d="M59.7,86.6c-1.3,0-2.7,0-4,0c0-5.2,0-10.5,0-15.8c1.3-0.1,2.7-0.1,4-0.2C59.7,76,59.7,81.2,59.7,86.6z"/>
		<path class="st1" d="M57.7,65.4c0.4,0.1,0.8,0.1,1.2,0.3c0.7,0.2,1,0.8,1,1.6c0,0.8-0.4,1.3-1.1,1.5c-0.8,0.2-1.5,0.2-2.3,0
			s-1.1-0.6-1.1-1.5c0-0.8,0.3-1.4,1.1-1.6C56.8,65.6,57.3,65.5,57.7,65.4z"/>
	</g>
	<g>
		<path id="outer_oval_17_" class="st2" d="M46.9,65.4c-0.5-1.3-1.2-2.1-2.5-2.5c-2.9-0.8-8.9-1-11.9-1l0,0l0,0l0,0l0,0l0,0
			c-3,0-9,0-11.9,1c-1.4,0.5-2.1,1.2-2.5,2.5c-0.9,2.9-1,8.9-1,11.9l0,0c0,3,0.2,9.1,1,11.9c0.4,1.3,1.1,2,2.5,2.5
			c2.9,1,8.9,1,11.9,1l0,0l0,0l0,0l0,0l0,0c3,0,9-0.2,11.9-1c1.3-0.4,2-1.1,2.5-2.5c1-2.9,1-8.9,1-11.9l0,0l0,0l0,0
			C47.9,74.4,47.9,68.4,46.9,65.4z"/>
		<g id="shapes_15_">
			<g id="Circle_6_33_">
				<g>
					<path class="st3" d="M25.6,82.3c-1.1,0-2,0.9-2,2s0.9,2,2,2s2-0.9,2-2S26.7,82.3,25.6,82.3z"/>
				</g>
			</g>
			<g id="Circle_5_33_">
				<g>
					<path class="st3" d="M32.5,82.3c-1.1,0-2,0.9-2,2s0.9,2,2,2c1.1,0,2-0.9,2-2C34.4,83.2,33.6,82.3,32.5,82.3z"/>
				</g>
			</g>
			<g id="Circle_4_33_">
				<g>
					<path class="st3" d="M39.4,82.3c-1.1,0-2,0.9-2,2s0.9,2,2,2s2-0.9,2-2S40.4,82.3,39.4,82.3z"/>
				</g>
			</g>
			<g id="Circel_3_33_">
				<g>
					<ellipse class="st3" cx="39.4" cy="77.4" rx="2" ry="2"/>
				</g>
			</g>
			<g id="Circle_2_33_">
				<g>
					<path class="st3" d="M32.5,75.4c-1.1,0-2,0.9-2,2s0.9,2,2,2c1.1,0,2-0.9,2-2S33.6,75.4,32.5,75.4z"/>
				</g>
			</g>
			<g id="Cicle_1_33_">
				<g>
					<path class="st3" d="M39.4,68.4c-1.1,0-2,0.9-2,2s0.9,2,2,2s2-0.9,2-2S40.4,68.4,39.4,68.4z"/>
				</g>
			</g>
			<g id="Top_Bar_33_">
				<g>
					<path class="st3" d="M32.8,68.8h-7.5c-0.9,0-1.7,0.8-1.7,1.7c0,0.9,0.8,1.7,1.7,1.7h7.5c0.9,0,1.7-0.8,1.7-1.7
						S33.7,68.8,32.8,68.8z"/>
				</g>
			</g>
		</g>
	</g>
</g>
<g>
	<path class="st4" d="M81.5,98.5l0.8-4.1c0.1-0.6,0.2-1.1,0.3-1.5h0.9L83.3,94l0,0c0.5-0.8,1.4-1.3,2.3-1.3c0.7,0,1.6,0.3,1.6,1.7
		c0,0.2-0.1,0.6-0.1,0.9l-0.6,3.2h-1l0.6-3.1c0-0.2,0.1-0.5,0.1-0.7c0-0.6-0.2-1.1-1-1.1c-0.7,0-1.8,0.8-2.1,2.3l-0.5,2.6H81.5
		L81.5,98.5z"/>
	<path class="st4" d="M92.2,98.1c-0.4,0.2-1.2,0.5-2,0.5c-1.6,0-2.3-1.1-2.3-2.3c0-1.8,1.4-3.5,3.3-3.5c1.2,0,1.8,0.6,1.8,1.5
		c0,1.5-1.8,1.8-4.1,1.8c-0.1,0.3,0,0.8,0.1,1.1c0.3,0.5,0.8,0.8,1.4,0.8c0.8,0,1.3-0.2,1.7-0.4L92.2,98.1z M90.9,93.5
		c-1.1,0-1.8,1-2,1.8c1.7,0,3-0.1,3-1C91.9,93.7,91.5,93.5,90.9,93.5z"/>
	<path class="st4" d="M94.4,92.9l0.2,3.2c0.1,0.7,0.1,1.1,0.1,1.5l0,0c0.1-0.3,0.3-0.8,0.7-1.4l1.8-3.3H98l0.4,3.2
		c0.1,0.6,0.1,1.2,0.1,1.5l0,0c0.2-0.5,0.3-0.9,0.6-1.4l1.6-3.3h1l-2.9,5.6h-1l-0.4-3.1c-0.1-0.6-0.1-1-0.1-1.5l0,0
		c-0.3,0.6-0.4,1-0.7,1.5l-1.7,3.1h-1l-0.6-5.6C93.4,92.9,94.4,92.9,94.4,92.9z"/>
	<path class="st4" d="M101.5,97.5c0.3,0.2,0.8,0.4,1.3,0.4c0.7,0,1.1-0.4,1.1-0.9c0-0.4-0.2-0.7-0.8-1c-0.7-0.4-1.1-0.9-1.1-1.4
		c0-1,0.9-1.8,2.1-1.8c0.6,0,1,0.2,1.3,0.3l-0.3,0.8c-0.2-0.1-0.6-0.3-1.1-0.3c-0.6,0-1,0.4-1,0.8s0.3,0.7,0.9,0.9
		c0.7,0.3,1.1,0.8,1.1,1.5c0,1.2-1,1.9-2.2,1.9c-0.7,0-1.2-0.2-1.5-0.4L101.5,97.5z"/>
	<path class="st4" d="M107.4,98.5l1.1-5.6h1l-1.1,5.6H107.4z M108.6,91.2c0-0.4,0.3-0.7,0.7-0.7s0.6,0.3,0.6,0.6
		c0,0.4-0.3,0.7-0.7,0.7C108.9,91.9,108.6,91.6,108.6,91.2z"/>
	<path class="st4" d="M109.8,98.5l0.8-4.1c0.1-0.6,0.2-1.1,0.3-1.5h0.9l-0.2,1.2l0,0c0.5-0.8,1.4-1.3,2.3-1.3c0.7,0,1.6,0.3,1.6,1.7
		c0,0.2-0.1,0.6-0.1,0.9l-0.6,3.2h-1l0.6-3.1c0-0.2,0.1-0.5,0.1-0.7c0-0.6-0.2-1.1-1-1.1c-0.7,0-1.8,0.8-2.1,2.3l-0.5,2.6
		L109.8,98.5L109.8,98.5z"/>
	<path class="st4" d="M123.1,91.7c-0.2,0-0.5,0-0.9,0.1c-1.5,0.3-2.6,1.4-3.1,2.8l0,0c0.5-0.6,1.3-1,2-1c1.3,0,2,0.9,2,2.1
		c0,1.5-1.3,3-3,3c-1.5,0-2.3-1.1-2.3-2.6c0-1.8,1-3.3,2-4.1c0.8-0.6,1.6-1,2.6-1.1c0.3-0.1,0.6-0.1,0.8-0.1L123.1,91.7z
		 M122.1,95.7c0-0.9-0.5-1.4-1.3-1.4c-0.7,0-1.3,0.4-1.8,1.1c-0.1,0.1-0.1,0.3-0.1,0.4s0,0.3,0,0.4c0,0.9,0.5,1.6,1.4,1.6
		C121.3,97.8,122.1,96.8,122.1,95.7z"/>
	<path class="st4" d="M129.1,93.2c0,2.7-1.3,5.4-3.4,5.4c-1.5,0-2.1-1.1-2.1-2.7c0-2.7,1.4-5.1,3.5-5.1
		C128.6,90.8,129.1,92,129.1,93.2z M124.6,96c0,0.8,0.2,1.8,1.2,1.8c1.5,0,2.3-2.8,2.3-4.4c0-0.6-0.1-1.8-1.1-1.8
		C125.7,91.6,124.6,93.9,124.6,96z"/>
	<path class="st4" d="M132.2,92.9l0.2,3.2c0.1,0.7,0.1,1.1,0.1,1.5l0,0c0.1-0.3,0.4-0.8,0.6-1.4l1.8-3.3h0.9l0.4,3.2
		c0.1,0.6,0.1,1.2,0.1,1.5l0,0c0.2-0.5,0.3-0.9,0.6-1.4l1.6-3.3h1l-2.9,5.6h-0.9l-0.4-3.1c-0.1-0.6-0.1-1-0.1-1.5l0,0
		c-0.3,0.6-0.4,1-0.7,1.5l-1.7,3.1h-1l-0.6-5.6C131.2,92.9,132.2,92.9,132.2,92.9z"/>
	<path class="st4" d="M145.1,95.2c0,1.8-1.4,3.4-3.4,3.4c-1.5,0-2.5-1.1-2.5-2.4c0-2,1.4-3.4,3.3-3.4
		C144.2,92.7,145.1,93.9,145.1,95.2z M140.3,96.2c0,1,0.7,1.7,1.6,1.7c1.2,0,2.2-1.2,2.2-2.6c0-0.7-0.4-1.7-1.6-1.7
		C141.1,93.5,140.3,94.8,140.3,96.2z"/>
	<path class="st4" d="M145.4,98.5l0.7-3.6c0.1-0.7,0.2-1.5,0.3-2.1h0.9c-0.1,0.4-0.1,0.8-0.2,1.3l0,0c0.4-0.8,1-1.4,1.8-1.4
		c0.1,0,0.2,0,0.3,0l-0.2,1c-0.1,0-0.2,0-0.3,0c-0.9,0-1.6,1-1.9,2.5l-0.4,2.3L145.4,98.5L145.4,98.5z"/>
	<path class="st4" d="M155.3,90.2l-1.3,6.6c-0.1,0.6-0.2,1.2-0.2,1.7h-0.9l0.2-1.2l0,0c-0.6,0.9-1.4,1.3-2.2,1.3
		c-1.2,0-1.9-1-1.9-2.2c0-2,1.6-3.7,3.8-3.7c0.4,0,0.8,0.1,1.1,0.2l0.5-2.8L155.3,90.2L155.3,90.2z M153.6,93.8
		c-0.2-0.1-0.6-0.2-1.1-0.2c-1.4,0-2.6,1.2-2.6,2.8c0,0.7,0.3,1.5,1.2,1.5s1.9-1,2.1-2.3L153.6,93.8z"/>
	<path class="st4" d="M155.1,97.5c0.3,0.2,0.8,0.4,1.3,0.4c0.7,0,1.1-0.4,1.1-0.9c0-0.4-0.2-0.7-0.9-1c-0.7-0.4-1.1-0.9-1.1-1.4
		c0-1,0.9-1.8,2.1-1.8c0.6,0,1,0.2,1.3,0.3l-0.3,0.8c-0.2-0.1-0.6-0.3-1.1-0.3c-0.6,0-1,0.4-1,0.8s0.3,0.7,0.9,0.9
		c0.7,0.3,1.1,0.8,1.1,1.5c0,1.2-1,1.9-2.2,1.9c-0.7,0-1.2-0.2-1.5-0.4L155.1,97.5z"/>
</g>
</svg>
