<?xml version="1.0" standalone="no"?>
<!DOCTYPE svg PUBLIC "-//W3C//DTD SVG 20010904//EN"
 "http://www.w3.org/TR/2001/REC-SVG-20010904/DTD/svg10.dtd">
<svg version="1.0" xmlns="http://www.w3.org/2000/svg"
 width="2201.000000pt" height="2576.000000pt" viewBox="0 0 2201.000000 2576.000000"
 preserveAspectRatio="xMidYMid meet">

<g transform="translate(0.000000,2576.000000) scale(0.100000,-0.100000)"
fill="#000000" stroke="none">
<path d="M10145 25681 c-16 -4 -41 -14 -55 -22 -20 -11 -98 -15 -375 -20 -346
-5 -350 -5 -395 -29 -43 -24 -55 -25 -280 -30 -182 -4 -241 -8 -260 -20 -18
-10 -71 -16 -185 -21 -131 -5 -166 -9 -195 -25 -28 -15 -63 -20 -185 -24 -121
-4 -157 -9 -185 -24 -26 -14 -67 -21 -157 -26 -66 -4 -126 -11 -132 -15 -7 -3
-58 -13 -116 -20 -57 -8 -125 -21 -150 -29 -25 -9 -70 -16 -100 -16 -66 0
-152 -18 -182 -37 -13 -9 -64 -19 -120 -23 -67 -6 -111 -15 -138 -29 -27 -15
-58 -21 -100 -21 -42 0 -73 -6 -100 -21 -24 -12 -72 -23 -120 -28 -44 -4 -91
-14 -104 -21 -14 -7 -58 -16 -98 -21 -42 -5 -88 -17 -106 -27 -19 -12 -58 -22
-98 -25 -37 -2 -77 -12 -91 -21 -14 -9 -54 -21 -88 -27 -34 -5 -79 -18 -99
-28 -20 -10 -57 -21 -83 -24 -26 -4 -66 -15 -90 -26 -24 -10 -64 -22 -91 -25
-26 -3 -65 -15 -86 -26 -22 -11 -59 -23 -83 -26 -23 -4 -65 -18 -93 -31 -27
-12 -58 -23 -68 -23 -10 0 -35 -9 -55 -19 -21 -11 -56 -23 -77 -27 -22 -3 -56
-15 -77 -25 -20 -10 -56 -22 -80 -25 -23 -4 -77 -23 -118 -42 -41 -19 -104
-43 -140 -53 -86 -24 -166 -53 -182 -66 -7 -6 -31 -16 -53 -23 -22 -7 -56 -20
-75 -30 -19 -10 -73 -32 -120 -50 -47 -18 -109 -44 -138 -57 -29 -12 -56 -23
-60 -23 -4 0 -19 -8 -32 -17 -14 -10 -63 -30 -110 -46 -47 -16 -94 -37 -105
-46 -11 -10 -51 -32 -90 -50 -38 -17 -79 -37 -90 -43 -11 -7 -33 -18 -50 -25
-16 -8 -39 -19 -50 -25 -11 -7 -33 -18 -50 -25 -16 -8 -39 -19 -50 -25 -11 -7
-33 -18 -50 -25 -16 -8 -39 -19 -50 -25 -11 -7 -33 -18 -50 -25 -16 -8 -39
-19 -50 -25 -34 -20 -67 -36 -170 -85 -104 -49 -193 -99 -210 -119 -13 -15
-113 -74 -125 -74 -14 0 -130 -77 -185 -122 -18 -16 -35 -28 -38 -28 -3 0 -63
-39 -134 -86 -118 -79 -161 -105 -232 -143 -14 -7 -35 -21 -46 -31 -11 -10
-30 -21 -43 -25 -12 -3 -27 -15 -32 -26 -6 -10 -16 -19 -23 -19 -7 0 -28 -13
-47 -30 -19 -16 -39 -29 -44 -30 -5 0 -19 -10 -31 -22 -13 -13 -35 -32 -50
-43 -14 -11 -81 -74 -148 -140 -67 -66 -144 -138 -172 -160 -27 -21 -54 -44
-60 -50 -5 -7 -39 -36 -75 -65 -36 -29 -69 -58 -75 -65 -5 -6 -17 -16 -27 -21
-9 -5 -51 -52 -95 -105 -43 -52 -106 -122 -141 -155 -35 -32 -83 -87 -108
-121 -24 -34 -47 -63 -51 -65 -14 -5 -108 -121 -148 -180 -21 -32 -42 -58 -45
-58 -8 0 -80 -116 -80 -129 0 -4 -11 -17 -23 -28 -13 -11 -34 -42 -46 -69 -12
-27 -27 -56 -32 -64 -5 -8 -18 -34 -29 -58 -11 -24 -31 -58 -45 -76 -14 -18
-25 -37 -25 -41 0 -5 -6 -16 -13 -24 -8 -9 -29 -54 -47 -101 -19 -47 -39 -92
-46 -100 -17 -21 -84 -153 -84 -166 0 -5 -8 -28 -19 -50 -10 -21 -22 -57 -26
-79 -3 -21 -15 -56 -26 -77 -10 -20 -19 -57 -19 -80 -1 -24 -8 -61 -16 -83 -9
-22 -20 -70 -24 -106 -5 -37 -19 -87 -31 -110 -21 -40 -24 -61 -29 -249 -5
-180 -8 -209 -25 -240 -20 -35 -20 -76 -23 -9865 -2 -5407 0 -9854 3 -9883 6
-51 9 -55 82 -115 44 -37 92 -67 116 -74 32 -9 2629 -12 10832 -12 9751 -1
10793 0 10813 15 l22 15 0 2887 c0 2824 0 2888 -19 2922 -11 19 -26 50 -35 69
-15 31 -16 650 -11 7065 3 3867 6 7105 7 7196 l3 165 -29 40 c-26 37 -28 45
-22 107 4 50 2 79 -10 110 -9 24 -21 70 -28 103 -7 33 -20 74 -28 90 -8 17
-19 48 -23 70 -4 22 -14 56 -22 75 -16 34 -28 65 -72 182 -27 70 -177 367
-216 428 -16 25 -42 72 -58 105 -15 32 -47 82 -71 110 -24 27 -55 69 -70 93
-26 41 -117 173 -153 221 -10 13 -60 69 -112 125 -51 55 -101 112 -110 125 -9
14 -115 124 -236 245 -202 203 -295 289 -385 356 -18 14 -44 35 -57 48 -13 12
-26 22 -29 22 -2 0 -25 19 -49 43 -63 59 -107 94 -138 108 -15 7 -27 16 -27
21 0 5 -12 13 -26 18 -28 11 -114 77 -127 98 -4 6 -15 12 -22 12 -8 0 -15 4
-15 9 0 5 -21 20 -47 32 -27 13 -66 36 -88 51 -22 16 -51 36 -65 45 -165 108
-235 155 -291 195 -36 27 -71 48 -78 48 -18 0 -220 107 -239 127 -9 9 -30 22
-47 30 -16 7 -50 27 -75 43 -25 15 -79 45 -120 65 -41 20 -82 41 -90 46 -8 5
-37 20 -65 34 -27 13 -57 29 -65 34 -8 5 -53 28 -100 50 -47 23 -92 46 -100
51 -8 5 -51 25 -95 46 -44 21 -87 43 -95 50 -8 6 -53 24 -100 38 -47 15 -148
57 -225 95 -77 38 -156 74 -175 79 -19 6 -69 25 -110 43 -41 17 -102 40 -135
49 -55 16 -102 34 -210 80 -22 10 -57 20 -79 24 -21 4 -46 11 -55 16 -51 29
-151 69 -182 74 -20 4 -54 15 -77 26 -23 11 -56 20 -74 20 -18 1 -51 8 -73 17
-22 8 -67 23 -100 32 -33 9 -73 24 -90 33 -16 8 -50 19 -74 23 -24 4 -58 15
-75 26 -17 10 -56 21 -86 25 -30 4 -71 15 -90 25 -20 11 -58 22 -85 25 -28 4
-68 16 -89 27 -22 10 -67 22 -100 25 -34 3 -83 16 -111 29 -30 14 -69 23 -98
23 -26 0 -62 7 -79 16 -17 9 -67 19 -112 23 -48 5 -97 16 -121 28 -25 13 -68
22 -115 25 -44 3 -89 12 -109 22 -20 11 -72 22 -125 26 -53 5 -110 17 -136 28
-25 11 -79 25 -120 30 -41 6 -100 20 -130 31 -41 15 -80 20 -155 21 -55 0
-125 7 -155 15 -30 8 -95 15 -143 15 -71 0 -99 5 -147 25 -50 21 -75 25 -160
25 -84 0 -110 4 -162 25 -57 23 -74 25 -220 25 -128 0 -166 3 -196 17 -29 13
-82 18 -257 23 -207 6 -223 8 -265 31 -45 24 -48 24 -405 29 -340 5 -363 6
-390 25 -29 20 -48 20 -875 22 -465 1 -858 -2 -875 -6z"/>
</g>
</svg>
