<svg width="1060" height="68" viewBox="0 0 1060 68" fill="none" xmlns="http://www.w3.org/2000/svg">
<g filter="url(#filter0_b_1_44844)">
<mask id="path-1-inside-1_1_44844" fill="white">
<path fill-rule="evenodd" clip-rule="evenodd" d="M13 0C5.8203 0 0 5.8203 0 13V40C0 47.1797 5.82028 53 13 53H38.6604L50.5587 21.4694C52.0277 17.5765 55.7538 15 59.9147 15H152.573C156.983 15 160.872 17.8884 162.146 22.11L171.472 53H1047C1054.18 53 1060 47.1797 1060 40V13C1060 5.8203 1054.18 0 1047 0H13Z"/>
</mask>
<path fill-rule="evenodd" clip-rule="evenodd" d="M13 0C5.8203 0 0 5.8203 0 13V40C0 47.1797 5.82028 53 13 53H38.6604L50.5587 21.4694C52.0277 17.5765 55.7538 15 59.9147 15H152.573C156.983 15 160.872 17.8884 162.146 22.11L171.472 53H1047C1054.18 53 1060 47.1797 1060 40V13C1060 5.8203 1054.18 0 1047 0H13Z" fill="url(#paint0_linear_1_44844)" fill-opacity="0.4"/>
<path d="M38.6604 53V54H39.3518L39.596 53.3531L38.6604 53ZM50.5587 21.4694L49.6231 21.1164L50.5587 21.4694ZM162.146 22.11L163.104 21.8209V21.8209L162.146 22.11ZM171.472 53L170.514 53.289L170.729 54H171.472V53ZM1 13C1 6.37258 6.37258 1 13 1V-1C5.26801 -1 -1 5.26801 -1 13H1ZM1 40V13H-1V40H1ZM13 52C6.37257 52 1 46.6274 1 40H-1C-1 47.732 5.26799 54 13 54V52ZM38.6604 52H13V54H38.6604V52ZM39.596 53.3531L51.4943 21.8225L49.6231 21.1164L37.7248 52.6469L39.596 53.3531ZM51.4943 21.8225C52.8164 18.3188 56.1699 16 59.9147 16V14C55.3377 14 51.239 16.8341 49.6231 21.1164L51.4943 21.8225ZM59.9147 16H152.573V14H59.9147V16ZM152.573 16C156.542 16 160.042 18.5996 161.189 22.399L163.104 21.8209C161.702 17.1773 157.424 14 152.573 14V16ZM161.189 22.399L170.514 53.289L172.429 52.711L163.104 21.8209L161.189 22.399ZM1047 52H171.472V54H1047V52ZM1059 40C1059 46.6274 1053.63 52 1047 52V54C1054.73 54 1061 47.732 1061 40H1059ZM1059 13V40H1061V13H1059ZM1047 1C1053.63 1 1059 6.37258 1059 13H1061C1061 5.26801 1054.73 -1 1047 -1V1ZM13 1H1047V-1H13V1Z" fill="black" mask="url(#path-1-inside-1_1_44844)"/>
</g>
<path d="M59.862 55V54.62C60.0647 54.62 60.242 54.544 60.394 54.392C60.546 54.24 60.6727 54.0627 60.774 53.86C60.9007 53.6573 60.9893 53.442 61.04 53.214C61.0907 52.9607 61.116 52.7327 61.116 52.53V33.074C61.116 32.6433 61.0527 32.238 60.926 31.858C60.7993 31.478 60.4193 31.2753 59.786 31.25V30.87L63.624 29.692V52.53C63.624 52.7327 63.6493 52.9607 63.7 53.214C63.7507 53.442 63.8267 53.6573 63.928 53.86C64.0547 54.0627 64.1813 54.24 64.308 54.392C64.46 54.544 64.6373 54.62 64.84 54.62V55H59.862ZM78.3849 55.266C77.1183 55.266 75.9783 55.0633 74.9649 54.658C73.9516 54.2273 73.0776 53.6573 72.3429 52.948C71.6336 52.2133 71.0763 51.352 70.6709 50.364C70.2909 49.376 70.1009 48.2993 70.1009 47.134C70.1009 45.8927 70.3163 44.7653 70.7469 43.752C71.1776 42.7133 71.7729 41.8267 72.5329 41.092C73.2929 40.3573 74.1923 39.7873 75.2309 39.382C76.2696 38.9767 77.3969 38.774 78.6129 38.774C79.8289 38.774 80.9436 38.9767 81.9569 39.382C82.9703 39.762 83.8443 40.3067 84.5789 41.016C85.3136 41.7253 85.8836 42.574 86.2889 43.562C86.6943 44.5247 86.8969 45.5887 86.8969 46.754C86.8969 47.8433 86.7069 48.9073 86.3269 49.946C85.9723 50.9593 85.4276 51.8587 84.6929 52.644C83.9836 53.4293 83.0969 54.0627 82.0329 54.544C80.9943 55.0253 79.7783 55.266 78.3849 55.266ZM78.1569 40.028C77.2449 40.0787 76.4343 40.3067 75.7249 40.712C75.0409 41.092 74.4583 41.5987 73.9769 42.232C73.5209 42.84 73.1663 43.5367 72.9129 44.322C72.6849 45.1073 72.5709 45.9053 72.5709 46.716C72.5709 47.6533 72.7103 48.5653 72.9889 49.452C73.2929 50.3133 73.7109 51.086 74.2429 51.77C74.8003 52.454 75.4589 52.9987 76.2189 53.404C76.9789 53.8093 77.8276 54.012 78.7649 54.012C79.7023 54.012 80.5256 53.8093 81.2349 53.404C81.9696 52.9987 82.5776 52.4793 83.0589 51.846C83.5403 51.1873 83.8949 50.4527 84.1229 49.642C84.3763 48.8313 84.5029 48.0207 84.5029 47.21C84.5029 46.374 84.3763 45.538 84.1229 44.702C83.8696 43.8407 83.4769 43.068 82.9449 42.384C82.4129 41.6747 81.7416 41.1047 80.9309 40.674C80.1456 40.2433 79.2209 40.028 78.1569 40.028ZM101.468 41.814C101.164 41.3073 100.847 40.9907 100.518 40.864C100.188 40.7373 99.8082 40.674 99.3775 40.674C99.0989 40.674 98.7949 40.7373 98.4655 40.864C98.1615 40.9907 97.8575 41.1553 97.5535 41.358C97.2495 41.5607 96.9455 41.7887 96.6415 42.042C96.3629 42.27 96.1222 42.4853 95.9195 42.688V52.568C95.9195 52.7707 95.9449 52.986 95.9955 53.214C96.0462 53.442 96.1222 53.67 96.2235 53.898C96.3502 54.1007 96.4769 54.278 96.6035 54.43C96.7555 54.5567 96.9329 54.62 97.1355 54.62V55H92.1955V54.62C92.3729 54.62 92.5375 54.5567 92.6895 54.43C92.8415 54.278 92.9682 54.1007 93.0695 53.898C93.1962 53.67 93.2849 53.442 93.3355 53.214C93.3862 52.986 93.4115 52.7707 93.4115 52.568V41.966C93.4115 41.6113 93.2975 41.2567 93.0695 40.902C92.8415 40.5473 92.5122 40.3193 92.0815 40.218V39.914L95.9195 38.774V41.054C96.1475 40.7753 96.3882 40.5093 96.6415 40.256C96.8949 39.9773 97.1735 39.7367 97.4775 39.534C97.8069 39.306 98.1615 39.1287 98.5415 39.002C98.9215 38.85 99.3649 38.774 99.8715 38.774C100.226 38.774 100.682 38.85 101.24 39.002C101.797 39.154 102.253 39.3187 102.608 39.496L101.468 41.814ZM108.988 47.324C109.09 48.2107 109.305 49.0593 109.634 49.87C109.964 50.6553 110.394 51.352 110.926 51.96C111.484 52.568 112.155 53.062 112.94 53.442C113.726 53.7967 114.638 53.974 115.676 53.974C116.234 53.974 116.816 53.898 117.424 53.746C118.058 53.5687 118.64 53.328 119.172 53.024C119.704 52.72 120.173 52.3527 120.578 51.922C121.009 51.466 121.3 50.9593 121.452 50.402H121.794V53.252C121.642 53.252 121.465 53.3027 121.262 53.404C121.085 53.5053 120.87 53.632 120.616 53.784C120.11 54.088 119.426 54.4173 118.564 54.772C117.703 55.1013 116.563 55.266 115.144 55.266C114.004 55.266 112.915 55.1013 111.876 54.772C110.863 54.4427 109.964 53.936 109.178 53.252C108.393 52.568 107.76 51.694 107.278 50.63C106.822 49.566 106.594 48.2993 106.594 46.83C106.594 45.8927 106.746 44.9427 107.05 43.98C107.38 43.0173 107.861 42.156 108.494 41.396C109.153 40.6107 109.989 39.9773 111.002 39.496C112.016 39.0147 113.232 38.774 114.65 38.774C115.917 38.774 117.019 38.9893 117.956 39.42C118.919 39.8507 119.704 40.446 120.312 41.206C120.946 41.966 121.414 42.8653 121.718 43.904C122.022 44.9427 122.174 46.0827 122.174 47.324H108.988ZM114.498 40.028C113.612 40.028 112.839 40.2053 112.18 40.56C111.547 40.9147 111.002 41.3707 110.546 41.928C110.09 42.4853 109.736 43.1187 109.482 43.828C109.229 44.5373 109.064 45.2467 108.988 45.956H119.818C119.793 45.2213 119.654 44.4993 119.4 43.79C119.172 43.0807 118.843 42.4473 118.412 41.89C117.982 41.3327 117.437 40.8893 116.778 40.56C116.12 40.2053 115.36 40.028 114.498 40.028ZM151.562 52.53C151.562 52.7327 151.587 52.9607 151.638 53.214C151.688 53.442 151.764 53.6573 151.866 53.86C151.967 54.0627 152.081 54.24 152.208 54.392C152.36 54.544 152.537 54.62 152.74 54.62V55H147.8V54.62C148.002 54.62 148.18 54.544 148.332 54.392C148.484 54.24 148.61 54.0627 148.712 53.86C148.838 53.6573 148.927 53.442 148.978 53.214C149.028 52.9607 149.054 52.7327 149.054 52.53V44.322C149.054 43.7393 148.965 43.182 148.788 42.65C148.636 42.118 148.395 41.662 148.066 41.282C147.736 40.8767 147.331 40.56 146.85 40.332C146.368 40.0787 145.824 39.952 145.216 39.952C144.532 39.952 143.936 40.1167 143.43 40.446C142.948 40.75 142.543 41.13 142.214 41.586C141.91 42.042 141.682 42.5107 141.53 42.992C141.378 43.448 141.302 43.828 141.302 44.132V52.53C141.302 52.7327 141.327 52.9607 141.378 53.214C141.428 53.442 141.504 53.6573 141.606 53.86C141.732 54.0627 141.859 54.24 141.986 54.392C142.138 54.544 142.315 54.62 142.518 54.62V55H137.616V54.62C137.793 54.62 137.958 54.544 138.11 54.392C138.262 54.24 138.388 54.0627 138.49 53.86C138.616 53.6573 138.705 53.442 138.756 53.214C138.806 52.9607 138.832 52.7327 138.832 52.53V44.094C138.832 43.486 138.718 42.9287 138.49 42.422C138.287 41.89 137.996 41.4467 137.616 41.092C137.261 40.7373 136.843 40.4587 136.362 40.256C135.906 40.0533 135.437 39.952 134.956 39.952C134.297 39.952 133.714 40.0787 133.208 40.332C132.726 40.5853 132.321 40.902 131.992 41.282C131.688 41.662 131.447 42.08 131.27 42.536C131.118 42.9667 131.042 43.3847 131.042 43.79V52.53C131.042 52.7327 131.067 52.9607 131.118 53.214C131.168 53.442 131.244 53.6573 131.346 53.86C131.472 54.0627 131.599 54.24 131.726 54.392C131.878 54.544 132.055 54.62 132.258 54.62V55H127.356V54.62C127.533 54.62 127.698 54.544 127.85 54.392C128.002 54.24 128.128 54.0627 128.23 53.86C128.356 53.6573 128.445 53.442 128.496 53.214C128.546 52.9607 128.572 52.7327 128.572 52.53V42.384C128.572 42.1813 128.559 41.9533 128.534 41.7C128.508 41.4467 128.458 41.206 128.382 40.978C128.306 40.75 128.179 40.56 128.002 40.408C127.824 40.256 127.584 40.18 127.28 40.18V39.838L131.042 38.584V40.522C131.422 40.0913 131.941 39.6733 132.6 39.268C133.284 38.8627 134.17 38.66 135.26 38.66C135.969 38.66 136.602 38.7613 137.16 38.964C137.717 39.1667 138.198 39.4327 138.604 39.762C139.034 40.066 139.402 40.4207 139.706 40.826C140.01 41.2313 140.263 41.624 140.466 42.004C140.668 41.624 140.909 41.244 141.188 40.864C141.466 40.4587 141.796 40.0913 142.176 39.762C142.581 39.4327 143.05 39.1667 143.582 38.964C144.139 38.7613 144.785 38.66 145.52 38.66C146.938 38.66 148.053 38.9133 148.864 39.42C149.674 39.9267 150.27 40.5347 150.65 41.244C151.055 41.9533 151.308 42.7007 151.41 43.486C151.511 44.246 151.562 44.892 151.562 45.424V52.53Z" fill="white"/>
<path d="M231.764 42V41.64C231.956 41.64 232.124 41.568 232.268 41.424C232.412 41.28 232.532 41.112 232.628 40.92C232.748 40.728 232.832 40.524 232.88 40.308C232.928 40.068 232.952 39.852 232.952 39.66V21.228C232.952 20.82 232.892 20.436 232.772 20.076C232.652 19.716 232.292 19.524 231.692 19.5V19.14L235.328 18.024V39.66C235.328 39.852 235.352 40.068 235.4 40.308C235.448 40.524 235.52 40.728 235.616 40.92C235.736 41.112 235.856 41.28 235.976 41.424C236.12 41.568 236.288 41.64 236.48 41.64V42H231.764ZM249.312 42.252C248.112 42.252 247.032 42.06 246.072 41.676C245.112 41.268 244.284 40.728 243.588 40.056C242.916 39.36 242.388 38.544 242.004 37.608C241.644 36.672 241.464 35.652 241.464 34.548C241.464 33.372 241.668 32.304 242.076 31.344C242.484 30.36 243.048 29.52 243.768 28.824C244.488 28.128 245.34 27.588 246.324 27.204C247.308 26.82 248.376 26.628 249.528 26.628C250.68 26.628 251.736 26.82 252.696 27.204C253.656 27.564 254.484 28.08 255.18 28.752C255.876 29.424 256.416 30.228 256.8 31.164C257.184 32.076 257.376 33.084 257.376 34.188C257.376 35.22 257.196 36.228 256.836 37.212C256.5 38.172 255.984 39.024 255.288 39.768C254.616 40.512 253.776 41.112 252.768 41.568C251.784 42.024 250.632 42.252 249.312 42.252ZM249.096 27.816C248.232 27.864 247.464 28.08 246.792 28.464C246.144 28.824 245.592 29.304 245.136 29.904C244.704 30.48 244.368 31.14 244.128 31.884C243.912 32.628 243.804 33.384 243.804 34.152C243.804 35.04 243.936 35.904 244.2 36.744C244.488 37.56 244.884 38.292 245.388 38.94C245.916 39.588 246.54 40.104 247.26 40.488C247.98 40.872 248.784 41.064 249.672 41.064C250.56 41.064 251.34 40.872 252.012 40.488C252.708 40.104 253.284 39.612 253.74 39.012C254.196 38.388 254.532 37.692 254.748 36.924C254.988 36.156 255.108 35.388 255.108 34.62C255.108 33.828 254.988 33.036 254.748 32.244C254.508 31.428 254.136 30.696 253.632 30.048C253.128 29.376 252.492 28.836 251.724 28.428C250.98 28.02 250.104 27.816 249.096 27.816ZM271.18 29.508C270.892 29.028 270.592 28.728 270.28 28.608C269.968 28.488 269.608 28.428 269.2 28.428C268.936 28.428 268.648 28.488 268.336 28.608C268.048 28.728 267.76 28.884 267.472 29.076C267.184 29.268 266.896 29.484 266.608 29.724C266.344 29.94 266.116 30.144 265.924 30.336V39.696C265.924 39.888 265.948 40.092 265.996 40.308C266.044 40.524 266.116 40.74 266.212 40.956C266.332 41.148 266.452 41.316 266.572 41.46C266.716 41.58 266.884 41.64 267.076 41.64V42H262.396V41.64C262.564 41.64 262.72 41.58 262.864 41.46C263.008 41.316 263.128 41.148 263.224 40.956C263.344 40.74 263.428 40.524 263.476 40.308C263.524 40.092 263.548 39.888 263.548 39.696V29.652C263.548 29.316 263.44 28.98 263.224 28.644C263.008 28.308 262.696 28.092 262.288 27.996V27.708L265.924 26.628V28.788C266.14 28.524 266.368 28.272 266.608 28.032C266.848 27.768 267.112 27.54 267.4 27.348C267.712 27.132 268.048 26.964 268.408 26.844C268.768 26.7 269.188 26.628 269.668 26.628C270.004 26.628 270.436 26.7 270.964 26.844C271.492 26.988 271.924 27.144 272.26 27.312L271.18 29.508ZM278.305 34.728C278.401 35.568 278.605 36.372 278.917 37.14C279.229 37.884 279.637 38.544 280.141 39.12C280.669 39.696 281.305 40.164 282.049 40.524C282.793 40.86 283.657 41.028 284.641 41.028C285.169 41.028 285.721 40.956 286.297 40.812C286.897 40.644 287.449 40.416 287.953 40.128C288.457 39.84 288.901 39.492 289.285 39.084C289.693 38.652 289.969 38.172 290.113 37.644H290.437V40.344C290.293 40.344 290.125 40.392 289.933 40.488C289.765 40.584 289.561 40.704 289.321 40.848C288.841 41.136 288.193 41.448 287.377 41.784C286.561 42.096 285.481 42.252 284.137 42.252C283.057 42.252 282.025 42.096 281.041 41.784C280.081 41.472 279.229 40.992 278.485 40.344C277.741 39.696 277.141 38.868 276.685 37.86C276.253 36.852 276.037 35.652 276.037 34.26C276.037 33.372 276.181 32.472 276.469 31.56C276.781 30.648 277.237 29.832 277.837 29.112C278.461 28.368 279.253 27.768 280.213 27.312C281.173 26.856 282.325 26.628 283.669 26.628C284.869 26.628 285.913 26.832 286.801 27.24C287.713 27.648 288.457 28.212 289.033 28.932C289.633 29.652 290.077 30.504 290.365 31.488C290.653 32.472 290.797 33.552 290.797 34.728H278.305ZM283.525 27.816C282.685 27.816 281.953 27.984 281.329 28.32C280.729 28.656 280.213 29.088 279.781 29.616C279.349 30.144 279.013 30.744 278.773 31.416C278.533 32.088 278.377 32.76 278.305 33.432H288.565C288.541 32.736 288.409 32.052 288.169 31.38C287.953 30.708 287.641 30.108 287.233 29.58C286.825 29.052 286.309 28.632 285.685 28.32C285.061 27.984 284.341 27.816 283.525 27.816ZM318.637 39.66C318.637 39.852 318.661 40.068 318.709 40.308C318.757 40.524 318.829 40.728 318.925 40.92C319.021 41.112 319.129 41.28 319.249 41.424C319.393 41.568 319.561 41.64 319.753 41.64V42H315.073V41.64C315.265 41.64 315.433 41.568 315.577 41.424C315.721 41.28 315.841 41.112 315.937 40.92C316.057 40.728 316.141 40.524 316.189 40.308C316.237 40.068 316.261 39.852 316.261 39.66V31.884C316.261 31.332 316.177 30.804 316.009 30.3C315.865 29.796 315.637 29.364 315.325 29.004C315.013 28.62 314.629 28.32 314.173 28.104C313.717 27.864 313.201 27.744 312.625 27.744C311.977 27.744 311.413 27.9 310.933 28.212C310.477 28.5 310.093 28.86 309.781 29.292C309.493 29.724 309.277 30.168 309.133 30.624C308.989 31.056 308.917 31.416 308.917 31.704V39.66C308.917 39.852 308.941 40.068 308.989 40.308C309.037 40.524 309.109 40.728 309.205 40.92C309.325 41.112 309.445 41.28 309.565 41.424C309.709 41.568 309.877 41.64 310.069 41.64V42H305.425V41.64C305.593 41.64 305.749 41.568 305.893 41.424C306.037 41.28 306.157 41.112 306.253 40.92C306.373 40.728 306.457 40.524 306.505 40.308C306.553 40.068 306.577 39.852 306.577 39.66V31.668C306.577 31.092 306.469 30.564 306.253 30.084C306.061 29.58 305.785 29.16 305.425 28.824C305.089 28.488 304.693 28.224 304.237 28.032C303.805 27.84 303.361 27.744 302.905 27.744C302.281 27.744 301.729 27.864 301.249 28.104C300.793 28.344 300.409 28.644 300.097 29.004C299.809 29.364 299.581 29.76 299.413 30.192C299.269 30.6 299.197 30.996 299.197 31.38V39.66C299.197 39.852 299.221 40.068 299.269 40.308C299.317 40.524 299.389 40.728 299.485 40.92C299.605 41.112 299.725 41.28 299.845 41.424C299.989 41.568 300.157 41.64 300.349 41.64V42H295.705V41.64C295.873 41.64 296.029 41.568 296.173 41.424C296.317 41.28 296.437 41.112 296.533 40.92C296.653 40.728 296.737 40.524 296.785 40.308C296.833 40.068 296.857 39.852 296.857 39.66V30.048C296.857 29.856 296.845 29.64 296.821 29.4C296.797 29.16 296.749 28.932 296.677 28.716C296.605 28.5 296.485 28.32 296.317 28.176C296.149 28.032 295.921 27.96 295.633 27.96V27.636L299.197 26.448V28.284C299.557 27.876 300.049 27.48 300.673 27.096C301.321 26.712 302.161 26.52 303.193 26.52C303.865 26.52 304.465 26.616 304.993 26.808C305.521 27 305.977 27.252 306.361 27.564C306.769 27.852 307.117 28.188 307.405 28.572C307.693 28.956 307.933 29.328 308.125 29.688C308.317 29.328 308.545 28.968 308.809 28.608C309.073 28.224 309.385 27.876 309.745 27.564C310.129 27.252 310.573 27 311.077 26.808C311.605 26.616 312.217 26.52 312.913 26.52C314.257 26.52 315.313 26.76 316.081 27.24C316.849 27.72 317.413 28.296 317.773 28.968C318.157 29.64 318.397 30.348 318.493 31.092C318.589 31.812 318.637 32.424 318.637 32.928V39.66Z" fill="white"/>
<path d="M399.764 42V41.64C399.956 41.64 400.124 41.568 400.268 41.424C400.412 41.28 400.532 41.112 400.628 40.92C400.748 40.728 400.832 40.524 400.88 40.308C400.928 40.068 400.952 39.852 400.952 39.66V21.228C400.952 20.82 400.892 20.436 400.772 20.076C400.652 19.716 400.292 19.524 399.692 19.5V19.14L403.328 18.024V39.66C403.328 39.852 403.352 40.068 403.4 40.308C403.448 40.524 403.52 40.728 403.616 40.92C403.736 41.112 403.856 41.28 403.976 41.424C404.12 41.568 404.288 41.64 404.48 41.64V42H399.764ZM417.312 42.252C416.112 42.252 415.032 42.06 414.072 41.676C413.112 41.268 412.284 40.728 411.588 40.056C410.916 39.36 410.388 38.544 410.004 37.608C409.644 36.672 409.464 35.652 409.464 34.548C409.464 33.372 409.668 32.304 410.076 31.344C410.484 30.36 411.048 29.52 411.768 28.824C412.488 28.128 413.34 27.588 414.324 27.204C415.308 26.82 416.376 26.628 417.528 26.628C418.68 26.628 419.736 26.82 420.696 27.204C421.656 27.564 422.484 28.08 423.18 28.752C423.876 29.424 424.416 30.228 424.8 31.164C425.184 32.076 425.376 33.084 425.376 34.188C425.376 35.22 425.196 36.228 424.836 37.212C424.5 38.172 423.984 39.024 423.288 39.768C422.616 40.512 421.776 41.112 420.768 41.568C419.784 42.024 418.632 42.252 417.312 42.252ZM417.096 27.816C416.232 27.864 415.464 28.08 414.792 28.464C414.144 28.824 413.592 29.304 413.136 29.904C412.704 30.48 412.368 31.14 412.128 31.884C411.912 32.628 411.804 33.384 411.804 34.152C411.804 35.04 411.936 35.904 412.2 36.744C412.488 37.56 412.884 38.292 413.388 38.94C413.916 39.588 414.54 40.104 415.26 40.488C415.98 40.872 416.784 41.064 417.672 41.064C418.56 41.064 419.34 40.872 420.012 40.488C420.708 40.104 421.284 39.612 421.74 39.012C422.196 38.388 422.532 37.692 422.748 36.924C422.988 36.156 423.108 35.388 423.108 34.62C423.108 33.828 422.988 33.036 422.748 32.244C422.508 31.428 422.136 30.696 421.632 30.048C421.128 29.376 420.492 28.836 419.724 28.428C418.98 28.02 418.104 27.816 417.096 27.816ZM439.18 29.508C438.892 29.028 438.592 28.728 438.28 28.608C437.968 28.488 437.608 28.428 437.2 28.428C436.936 28.428 436.648 28.488 436.336 28.608C436.048 28.728 435.76 28.884 435.472 29.076C435.184 29.268 434.896 29.484 434.608 29.724C434.344 29.94 434.116 30.144 433.924 30.336V39.696C433.924 39.888 433.948 40.092 433.996 40.308C434.044 40.524 434.116 40.74 434.212 40.956C434.332 41.148 434.452 41.316 434.572 41.46C434.716 41.58 434.884 41.64 435.076 41.64V42H430.396V41.64C430.564 41.64 430.72 41.58 430.864 41.46C431.008 41.316 431.128 41.148 431.224 40.956C431.344 40.74 431.428 40.524 431.476 40.308C431.524 40.092 431.548 39.888 431.548 39.696V29.652C431.548 29.316 431.44 28.98 431.224 28.644C431.008 28.308 430.696 28.092 430.288 27.996V27.708L433.924 26.628V28.788C434.14 28.524 434.368 28.272 434.608 28.032C434.848 27.768 435.112 27.54 435.4 27.348C435.712 27.132 436.048 26.964 436.408 26.844C436.768 26.7 437.188 26.628 437.668 26.628C438.004 26.628 438.436 26.7 438.964 26.844C439.492 26.988 439.924 27.144 440.26 27.312L439.18 29.508ZM446.305 34.728C446.401 35.568 446.605 36.372 446.917 37.14C447.229 37.884 447.637 38.544 448.141 39.12C448.669 39.696 449.305 40.164 450.049 40.524C450.793 40.86 451.657 41.028 452.641 41.028C453.169 41.028 453.721 40.956 454.297 40.812C454.897 40.644 455.449 40.416 455.953 40.128C456.457 39.84 456.901 39.492 457.285 39.084C457.693 38.652 457.969 38.172 458.113 37.644H458.437V40.344C458.293 40.344 458.125 40.392 457.933 40.488C457.765 40.584 457.561 40.704 457.321 40.848C456.841 41.136 456.193 41.448 455.377 41.784C454.561 42.096 453.481 42.252 452.137 42.252C451.057 42.252 450.025 42.096 449.041 41.784C448.081 41.472 447.229 40.992 446.485 40.344C445.741 39.696 445.141 38.868 444.685 37.86C444.253 36.852 444.037 35.652 444.037 34.26C444.037 33.372 444.181 32.472 444.469 31.56C444.781 30.648 445.237 29.832 445.837 29.112C446.461 28.368 447.253 27.768 448.213 27.312C449.173 26.856 450.325 26.628 451.669 26.628C452.869 26.628 453.913 26.832 454.801 27.24C455.713 27.648 456.457 28.212 457.033 28.932C457.633 29.652 458.077 30.504 458.365 31.488C458.653 32.472 458.797 33.552 458.797 34.728H446.305ZM451.525 27.816C450.685 27.816 449.953 27.984 449.329 28.32C448.729 28.656 448.213 29.088 447.781 29.616C447.349 30.144 447.013 30.744 446.773 31.416C446.533 32.088 446.377 32.76 446.305 33.432H456.565C456.541 32.736 456.409 32.052 456.169 31.38C455.953 30.708 455.641 30.108 455.233 29.58C454.825 29.052 454.309 28.632 453.685 28.32C453.061 27.984 452.341 27.816 451.525 27.816ZM486.637 39.66C486.637 39.852 486.661 40.068 486.709 40.308C486.757 40.524 486.829 40.728 486.925 40.92C487.021 41.112 487.129 41.28 487.249 41.424C487.393 41.568 487.561 41.64 487.753 41.64V42H483.073V41.64C483.265 41.64 483.433 41.568 483.577 41.424C483.721 41.28 483.841 41.112 483.937 40.92C484.057 40.728 484.141 40.524 484.189 40.308C484.237 40.068 484.261 39.852 484.261 39.66V31.884C484.261 31.332 484.177 30.804 484.009 30.3C483.865 29.796 483.637 29.364 483.325 29.004C483.013 28.62 482.629 28.32 482.173 28.104C481.717 27.864 481.201 27.744 480.625 27.744C479.977 27.744 479.413 27.9 478.933 28.212C478.477 28.5 478.093 28.86 477.781 29.292C477.493 29.724 477.277 30.168 477.133 30.624C476.989 31.056 476.917 31.416 476.917 31.704V39.66C476.917 39.852 476.941 40.068 476.989 40.308C477.037 40.524 477.109 40.728 477.205 40.92C477.325 41.112 477.445 41.28 477.565 41.424C477.709 41.568 477.877 41.64 478.069 41.64V42H473.425V41.64C473.593 41.64 473.749 41.568 473.893 41.424C474.037 41.28 474.157 41.112 474.253 40.92C474.373 40.728 474.457 40.524 474.505 40.308C474.553 40.068 474.577 39.852 474.577 39.66V31.668C474.577 31.092 474.469 30.564 474.253 30.084C474.061 29.58 473.785 29.16 473.425 28.824C473.089 28.488 472.693 28.224 472.237 28.032C471.805 27.84 471.361 27.744 470.905 27.744C470.281 27.744 469.729 27.864 469.249 28.104C468.793 28.344 468.409 28.644 468.097 29.004C467.809 29.364 467.581 29.76 467.413 30.192C467.269 30.6 467.197 30.996 467.197 31.38V39.66C467.197 39.852 467.221 40.068 467.269 40.308C467.317 40.524 467.389 40.728 467.485 40.92C467.605 41.112 467.725 41.28 467.845 41.424C467.989 41.568 468.157 41.64 468.349 41.64V42H463.705V41.64C463.873 41.64 464.029 41.568 464.173 41.424C464.317 41.28 464.437 41.112 464.533 40.92C464.653 40.728 464.737 40.524 464.785 40.308C464.833 40.068 464.857 39.852 464.857 39.66V30.048C464.857 29.856 464.845 29.64 464.821 29.4C464.797 29.16 464.749 28.932 464.677 28.716C464.605 28.5 464.485 28.32 464.317 28.176C464.149 28.032 463.921 27.96 463.633 27.96V27.636L467.197 26.448V28.284C467.557 27.876 468.049 27.48 468.673 27.096C469.321 26.712 470.161 26.52 471.193 26.52C471.865 26.52 472.465 26.616 472.993 26.808C473.521 27 473.977 27.252 474.361 27.564C474.769 27.852 475.117 28.188 475.405 28.572C475.693 28.956 475.933 29.328 476.125 29.688C476.317 29.328 476.545 28.968 476.809 28.608C477.073 28.224 477.385 27.876 477.745 27.564C478.129 27.252 478.573 27 479.077 26.808C479.605 26.616 480.217 26.52 480.913 26.52C482.257 26.52 483.313 26.76 484.081 27.24C484.849 27.72 485.413 28.296 485.773 28.968C486.157 29.64 486.397 30.348 486.493 31.092C486.589 31.812 486.637 32.424 486.637 32.928V39.66Z" fill="white"/>
<path d="M567.764 42V41.64C567.956 41.64 568.124 41.568 568.268 41.424C568.412 41.28 568.532 41.112 568.628 40.92C568.748 40.728 568.832 40.524 568.88 40.308C568.928 40.068 568.952 39.852 568.952 39.66V21.228C568.952 20.82 568.892 20.436 568.772 20.076C568.652 19.716 568.292 19.524 567.692 19.5V19.14L571.328 18.024V39.66C571.328 39.852 571.352 40.068 571.4 40.308C571.448 40.524 571.52 40.728 571.616 40.92C571.736 41.112 571.856 41.28 571.976 41.424C572.12 41.568 572.288 41.64 572.48 41.64V42H567.764ZM585.312 42.252C584.112 42.252 583.032 42.06 582.072 41.676C581.112 41.268 580.284 40.728 579.588 40.056C578.916 39.36 578.388 38.544 578.004 37.608C577.644 36.672 577.464 35.652 577.464 34.548C577.464 33.372 577.668 32.304 578.076 31.344C578.484 30.36 579.048 29.52 579.768 28.824C580.488 28.128 581.34 27.588 582.324 27.204C583.308 26.82 584.376 26.628 585.528 26.628C586.68 26.628 587.736 26.82 588.696 27.204C589.656 27.564 590.484 28.08 591.18 28.752C591.876 29.424 592.416 30.228 592.8 31.164C593.184 32.076 593.376 33.084 593.376 34.188C593.376 35.22 593.196 36.228 592.836 37.212C592.5 38.172 591.984 39.024 591.288 39.768C590.616 40.512 589.776 41.112 588.768 41.568C587.784 42.024 586.632 42.252 585.312 42.252ZM585.096 27.816C584.232 27.864 583.464 28.08 582.792 28.464C582.144 28.824 581.592 29.304 581.136 29.904C580.704 30.48 580.368 31.14 580.128 31.884C579.912 32.628 579.804 33.384 579.804 34.152C579.804 35.04 579.936 35.904 580.2 36.744C580.488 37.56 580.884 38.292 581.388 38.94C581.916 39.588 582.54 40.104 583.26 40.488C583.98 40.872 584.784 41.064 585.672 41.064C586.56 41.064 587.34 40.872 588.012 40.488C588.708 40.104 589.284 39.612 589.74 39.012C590.196 38.388 590.532 37.692 590.748 36.924C590.988 36.156 591.108 35.388 591.108 34.62C591.108 33.828 590.988 33.036 590.748 32.244C590.508 31.428 590.136 30.696 589.632 30.048C589.128 29.376 588.492 28.836 587.724 28.428C586.98 28.02 586.104 27.816 585.096 27.816ZM607.18 29.508C606.892 29.028 606.592 28.728 606.28 28.608C605.968 28.488 605.608 28.428 605.2 28.428C604.936 28.428 604.648 28.488 604.336 28.608C604.048 28.728 603.76 28.884 603.472 29.076C603.184 29.268 602.896 29.484 602.608 29.724C602.344 29.94 602.116 30.144 601.924 30.336V39.696C601.924 39.888 601.948 40.092 601.996 40.308C602.044 40.524 602.116 40.74 602.212 40.956C602.332 41.148 602.452 41.316 602.572 41.46C602.716 41.58 602.884 41.64 603.076 41.64V42H598.396V41.64C598.564 41.64 598.72 41.58 598.864 41.46C599.008 41.316 599.128 41.148 599.224 40.956C599.344 40.74 599.428 40.524 599.476 40.308C599.524 40.092 599.548 39.888 599.548 39.696V29.652C599.548 29.316 599.44 28.98 599.224 28.644C599.008 28.308 598.696 28.092 598.288 27.996V27.708L601.924 26.628V28.788C602.14 28.524 602.368 28.272 602.608 28.032C602.848 27.768 603.112 27.54 603.4 27.348C603.712 27.132 604.048 26.964 604.408 26.844C604.768 26.7 605.188 26.628 605.668 26.628C606.004 26.628 606.436 26.7 606.964 26.844C607.492 26.988 607.924 27.144 608.26 27.312L607.18 29.508ZM614.305 34.728C614.401 35.568 614.605 36.372 614.917 37.14C615.229 37.884 615.637 38.544 616.141 39.12C616.669 39.696 617.305 40.164 618.049 40.524C618.793 40.86 619.657 41.028 620.641 41.028C621.169 41.028 621.721 40.956 622.297 40.812C622.897 40.644 623.449 40.416 623.953 40.128C624.457 39.84 624.901 39.492 625.285 39.084C625.693 38.652 625.969 38.172 626.113 37.644H626.437V40.344C626.293 40.344 626.125 40.392 625.933 40.488C625.765 40.584 625.561 40.704 625.321 40.848C624.841 41.136 624.193 41.448 623.377 41.784C622.561 42.096 621.481 42.252 620.137 42.252C619.057 42.252 618.025 42.096 617.041 41.784C616.081 41.472 615.229 40.992 614.485 40.344C613.741 39.696 613.141 38.868 612.685 37.86C612.253 36.852 612.037 35.652 612.037 34.26C612.037 33.372 612.181 32.472 612.469 31.56C612.781 30.648 613.237 29.832 613.837 29.112C614.461 28.368 615.253 27.768 616.213 27.312C617.173 26.856 618.325 26.628 619.669 26.628C620.869 26.628 621.913 26.832 622.801 27.24C623.713 27.648 624.457 28.212 625.033 28.932C625.633 29.652 626.077 30.504 626.365 31.488C626.653 32.472 626.797 33.552 626.797 34.728H614.305ZM619.525 27.816C618.685 27.816 617.953 27.984 617.329 28.32C616.729 28.656 616.213 29.088 615.781 29.616C615.349 30.144 615.013 30.744 614.773 31.416C614.533 32.088 614.377 32.76 614.305 33.432H624.565C624.541 32.736 624.409 32.052 624.169 31.38C623.953 30.708 623.641 30.108 623.233 29.58C622.825 29.052 622.309 28.632 621.685 28.32C621.061 27.984 620.341 27.816 619.525 27.816ZM654.637 39.66C654.637 39.852 654.661 40.068 654.709 40.308C654.757 40.524 654.829 40.728 654.925 40.92C655.021 41.112 655.129 41.28 655.249 41.424C655.393 41.568 655.561 41.64 655.753 41.64V42H651.073V41.64C651.265 41.64 651.433 41.568 651.577 41.424C651.721 41.28 651.841 41.112 651.937 40.92C652.057 40.728 652.141 40.524 652.189 40.308C652.237 40.068 652.261 39.852 652.261 39.66V31.884C652.261 31.332 652.177 30.804 652.009 30.3C651.865 29.796 651.637 29.364 651.325 29.004C651.013 28.62 650.629 28.32 650.173 28.104C649.717 27.864 649.201 27.744 648.625 27.744C647.977 27.744 647.413 27.9 646.933 28.212C646.477 28.5 646.093 28.86 645.781 29.292C645.493 29.724 645.277 30.168 645.133 30.624C644.989 31.056 644.917 31.416 644.917 31.704V39.66C644.917 39.852 644.941 40.068 644.989 40.308C645.037 40.524 645.109 40.728 645.205 40.92C645.325 41.112 645.445 41.28 645.565 41.424C645.709 41.568 645.877 41.64 646.069 41.64V42H641.425V41.64C641.593 41.64 641.749 41.568 641.893 41.424C642.037 41.28 642.157 41.112 642.253 40.92C642.373 40.728 642.457 40.524 642.505 40.308C642.553 40.068 642.577 39.852 642.577 39.66V31.668C642.577 31.092 642.469 30.564 642.253 30.084C642.061 29.58 641.785 29.16 641.425 28.824C641.089 28.488 640.693 28.224 640.237 28.032C639.805 27.84 639.361 27.744 638.905 27.744C638.281 27.744 637.729 27.864 637.249 28.104C636.793 28.344 636.409 28.644 636.097 29.004C635.809 29.364 635.581 29.76 635.413 30.192C635.269 30.6 635.197 30.996 635.197 31.38V39.66C635.197 39.852 635.221 40.068 635.269 40.308C635.317 40.524 635.389 40.728 635.485 40.92C635.605 41.112 635.725 41.28 635.845 41.424C635.989 41.568 636.157 41.64 636.349 41.64V42H631.705V41.64C631.873 41.64 632.029 41.568 632.173 41.424C632.317 41.28 632.437 41.112 632.533 40.92C632.653 40.728 632.737 40.524 632.785 40.308C632.833 40.068 632.857 39.852 632.857 39.66V30.048C632.857 29.856 632.845 29.64 632.821 29.4C632.797 29.16 632.749 28.932 632.677 28.716C632.605 28.5 632.485 28.32 632.317 28.176C632.149 28.032 631.921 27.96 631.633 27.96V27.636L635.197 26.448V28.284C635.557 27.876 636.049 27.48 636.673 27.096C637.321 26.712 638.161 26.52 639.193 26.52C639.865 26.52 640.465 26.616 640.993 26.808C641.521 27 641.977 27.252 642.361 27.564C642.769 27.852 643.117 28.188 643.405 28.572C643.693 28.956 643.933 29.328 644.125 29.688C644.317 29.328 644.545 28.968 644.809 28.608C645.073 28.224 645.385 27.876 645.745 27.564C646.129 27.252 646.573 27 647.077 26.808C647.605 26.616 648.217 26.52 648.913 26.52C650.257 26.52 651.313 26.76 652.081 27.24C652.849 27.72 653.413 28.296 653.773 28.968C654.157 29.64 654.397 30.348 654.493 31.092C654.589 31.812 654.637 32.424 654.637 32.928V39.66Z" fill="white"/>
<path d="M735.764 42V41.64C735.956 41.64 736.124 41.568 736.268 41.424C736.412 41.28 736.532 41.112 736.628 40.92C736.748 40.728 736.832 40.524 736.88 40.308C736.928 40.068 736.952 39.852 736.952 39.66V21.228C736.952 20.82 736.892 20.436 736.772 20.076C736.652 19.716 736.292 19.524 735.692 19.5V19.14L739.328 18.024V39.66C739.328 39.852 739.352 40.068 739.4 40.308C739.448 40.524 739.52 40.728 739.616 40.92C739.736 41.112 739.856 41.28 739.976 41.424C740.12 41.568 740.288 41.64 740.48 41.64V42H735.764ZM753.312 42.252C752.112 42.252 751.032 42.06 750.072 41.676C749.112 41.268 748.284 40.728 747.588 40.056C746.916 39.36 746.388 38.544 746.004 37.608C745.644 36.672 745.464 35.652 745.464 34.548C745.464 33.372 745.668 32.304 746.076 31.344C746.484 30.36 747.048 29.52 747.768 28.824C748.488 28.128 749.34 27.588 750.324 27.204C751.308 26.82 752.376 26.628 753.528 26.628C754.68 26.628 755.736 26.82 756.696 27.204C757.656 27.564 758.484 28.08 759.18 28.752C759.876 29.424 760.416 30.228 760.8 31.164C761.184 32.076 761.376 33.084 761.376 34.188C761.376 35.22 761.196 36.228 760.836 37.212C760.5 38.172 759.984 39.024 759.288 39.768C758.616 40.512 757.776 41.112 756.768 41.568C755.784 42.024 754.632 42.252 753.312 42.252ZM753.096 27.816C752.232 27.864 751.464 28.08 750.792 28.464C750.144 28.824 749.592 29.304 749.136 29.904C748.704 30.48 748.368 31.14 748.128 31.884C747.912 32.628 747.804 33.384 747.804 34.152C747.804 35.04 747.936 35.904 748.2 36.744C748.488 37.56 748.884 38.292 749.388 38.94C749.916 39.588 750.54 40.104 751.26 40.488C751.98 40.872 752.784 41.064 753.672 41.064C754.56 41.064 755.34 40.872 756.012 40.488C756.708 40.104 757.284 39.612 757.74 39.012C758.196 38.388 758.532 37.692 758.748 36.924C758.988 36.156 759.108 35.388 759.108 34.62C759.108 33.828 758.988 33.036 758.748 32.244C758.508 31.428 758.136 30.696 757.632 30.048C757.128 29.376 756.492 28.836 755.724 28.428C754.98 28.02 754.104 27.816 753.096 27.816ZM775.18 29.508C774.892 29.028 774.592 28.728 774.28 28.608C773.968 28.488 773.608 28.428 773.2 28.428C772.936 28.428 772.648 28.488 772.336 28.608C772.048 28.728 771.76 28.884 771.472 29.076C771.184 29.268 770.896 29.484 770.608 29.724C770.344 29.94 770.116 30.144 769.924 30.336V39.696C769.924 39.888 769.948 40.092 769.996 40.308C770.044 40.524 770.116 40.74 770.212 40.956C770.332 41.148 770.452 41.316 770.572 41.46C770.716 41.58 770.884 41.64 771.076 41.64V42H766.396V41.64C766.564 41.64 766.72 41.58 766.864 41.46C767.008 41.316 767.128 41.148 767.224 40.956C767.344 40.74 767.428 40.524 767.476 40.308C767.524 40.092 767.548 39.888 767.548 39.696V29.652C767.548 29.316 767.44 28.98 767.224 28.644C767.008 28.308 766.696 28.092 766.288 27.996V27.708L769.924 26.628V28.788C770.14 28.524 770.368 28.272 770.608 28.032C770.848 27.768 771.112 27.54 771.4 27.348C771.712 27.132 772.048 26.964 772.408 26.844C772.768 26.7 773.188 26.628 773.668 26.628C774.004 26.628 774.436 26.7 774.964 26.844C775.492 26.988 775.924 27.144 776.26 27.312L775.18 29.508ZM782.305 34.728C782.401 35.568 782.605 36.372 782.917 37.14C783.229 37.884 783.637 38.544 784.141 39.12C784.669 39.696 785.305 40.164 786.049 40.524C786.793 40.86 787.657 41.028 788.641 41.028C789.169 41.028 789.721 40.956 790.297 40.812C790.897 40.644 791.449 40.416 791.953 40.128C792.457 39.84 792.901 39.492 793.285 39.084C793.693 38.652 793.969 38.172 794.113 37.644H794.437V40.344C794.293 40.344 794.125 40.392 793.933 40.488C793.765 40.584 793.561 40.704 793.321 40.848C792.841 41.136 792.193 41.448 791.377 41.784C790.561 42.096 789.481 42.252 788.137 42.252C787.057 42.252 786.025 42.096 785.041 41.784C784.081 41.472 783.229 40.992 782.485 40.344C781.741 39.696 781.141 38.868 780.685 37.86C780.253 36.852 780.037 35.652 780.037 34.26C780.037 33.372 780.181 32.472 780.469 31.56C780.781 30.648 781.237 29.832 781.837 29.112C782.461 28.368 783.253 27.768 784.213 27.312C785.173 26.856 786.325 26.628 787.669 26.628C788.869 26.628 789.913 26.832 790.801 27.24C791.713 27.648 792.457 28.212 793.033 28.932C793.633 29.652 794.077 30.504 794.365 31.488C794.653 32.472 794.797 33.552 794.797 34.728H782.305ZM787.525 27.816C786.685 27.816 785.953 27.984 785.329 28.32C784.729 28.656 784.213 29.088 783.781 29.616C783.349 30.144 783.013 30.744 782.773 31.416C782.533 32.088 782.377 32.76 782.305 33.432H792.565C792.541 32.736 792.409 32.052 792.169 31.38C791.953 30.708 791.641 30.108 791.233 29.58C790.825 29.052 790.309 28.632 789.685 28.32C789.061 27.984 788.341 27.816 787.525 27.816ZM822.637 39.66C822.637 39.852 822.661 40.068 822.709 40.308C822.757 40.524 822.829 40.728 822.925 40.92C823.021 41.112 823.129 41.28 823.249 41.424C823.393 41.568 823.561 41.64 823.753 41.64V42H819.073V41.64C819.265 41.64 819.433 41.568 819.577 41.424C819.721 41.28 819.841 41.112 819.937 40.92C820.057 40.728 820.141 40.524 820.189 40.308C820.237 40.068 820.261 39.852 820.261 39.66V31.884C820.261 31.332 820.177 30.804 820.009 30.3C819.865 29.796 819.637 29.364 819.325 29.004C819.013 28.62 818.629 28.32 818.173 28.104C817.717 27.864 817.201 27.744 816.625 27.744C815.977 27.744 815.413 27.9 814.933 28.212C814.477 28.5 814.093 28.86 813.781 29.292C813.493 29.724 813.277 30.168 813.133 30.624C812.989 31.056 812.917 31.416 812.917 31.704V39.66C812.917 39.852 812.941 40.068 812.989 40.308C813.037 40.524 813.109 40.728 813.205 40.92C813.325 41.112 813.445 41.28 813.565 41.424C813.709 41.568 813.877 41.64 814.069 41.64V42H809.425V41.64C809.593 41.64 809.749 41.568 809.893 41.424C810.037 41.28 810.157 41.112 810.253 40.92C810.373 40.728 810.457 40.524 810.505 40.308C810.553 40.068 810.577 39.852 810.577 39.66V31.668C810.577 31.092 810.469 30.564 810.253 30.084C810.061 29.58 809.785 29.16 809.425 28.824C809.089 28.488 808.693 28.224 808.237 28.032C807.805 27.84 807.361 27.744 806.905 27.744C806.281 27.744 805.729 27.864 805.249 28.104C804.793 28.344 804.409 28.644 804.097 29.004C803.809 29.364 803.581 29.76 803.413 30.192C803.269 30.6 803.197 30.996 803.197 31.38V39.66C803.197 39.852 803.221 40.068 803.269 40.308C803.317 40.524 803.389 40.728 803.485 40.92C803.605 41.112 803.725 41.28 803.845 41.424C803.989 41.568 804.157 41.64 804.349 41.64V42H799.705V41.64C799.873 41.64 800.029 41.568 800.173 41.424C800.317 41.28 800.437 41.112 800.533 40.92C800.653 40.728 800.737 40.524 800.785 40.308C800.833 40.068 800.857 39.852 800.857 39.66V30.048C800.857 29.856 800.845 29.64 800.821 29.4C800.797 29.16 800.749 28.932 800.677 28.716C800.605 28.5 800.485 28.32 800.317 28.176C800.149 28.032 799.921 27.96 799.633 27.96V27.636L803.197 26.448V28.284C803.557 27.876 804.049 27.48 804.673 27.096C805.321 26.712 806.161 26.52 807.193 26.52C807.865 26.52 808.465 26.616 808.993 26.808C809.521 27 809.977 27.252 810.361 27.564C810.769 27.852 811.117 28.188 811.405 28.572C811.693 28.956 811.933 29.328 812.125 29.688C812.317 29.328 812.545 28.968 812.809 28.608C813.073 28.224 813.385 27.876 813.745 27.564C814.129 27.252 814.573 27 815.077 26.808C815.605 26.616 816.217 26.52 816.913 26.52C818.257 26.52 819.313 26.76 820.081 27.24C820.849 27.72 821.413 28.296 821.773 28.968C822.157 29.64 822.397 30.348 822.493 31.092C822.589 31.812 822.637 32.424 822.637 32.928V39.66Z" fill="white"/>
<path d="M903.764 42V41.64C903.956 41.64 904.124 41.568 904.268 41.424C904.412 41.28 904.532 41.112 904.628 40.92C904.748 40.728 904.832 40.524 904.88 40.308C904.928 40.068 904.952 39.852 904.952 39.66V21.228C904.952 20.82 904.892 20.436 904.772 20.076C904.652 19.716 904.292 19.524 903.692 19.5V19.14L907.328 18.024V39.66C907.328 39.852 907.352 40.068 907.4 40.308C907.448 40.524 907.52 40.728 907.616 40.92C907.736 41.112 907.856 41.28 907.976 41.424C908.12 41.568 908.288 41.64 908.48 41.64V42H903.764ZM921.312 42.252C920.112 42.252 919.032 42.06 918.072 41.676C917.112 41.268 916.284 40.728 915.588 40.056C914.916 39.36 914.388 38.544 914.004 37.608C913.644 36.672 913.464 35.652 913.464 34.548C913.464 33.372 913.668 32.304 914.076 31.344C914.484 30.36 915.048 29.52 915.768 28.824C916.488 28.128 917.34 27.588 918.324 27.204C919.308 26.82 920.376 26.628 921.528 26.628C922.68 26.628 923.736 26.82 924.696 27.204C925.656 27.564 926.484 28.08 927.18 28.752C927.876 29.424 928.416 30.228 928.8 31.164C929.184 32.076 929.376 33.084 929.376 34.188C929.376 35.22 929.196 36.228 928.836 37.212C928.5 38.172 927.984 39.024 927.288 39.768C926.616 40.512 925.776 41.112 924.768 41.568C923.784 42.024 922.632 42.252 921.312 42.252ZM921.096 27.816C920.232 27.864 919.464 28.08 918.792 28.464C918.144 28.824 917.592 29.304 917.136 29.904C916.704 30.48 916.368 31.14 916.128 31.884C915.912 32.628 915.804 33.384 915.804 34.152C915.804 35.04 915.936 35.904 916.2 36.744C916.488 37.56 916.884 38.292 917.388 38.94C917.916 39.588 918.54 40.104 919.26 40.488C919.98 40.872 920.784 41.064 921.672 41.064C922.56 41.064 923.34 40.872 924.012 40.488C924.708 40.104 925.284 39.612 925.74 39.012C926.196 38.388 926.532 37.692 926.748 36.924C926.988 36.156 927.108 35.388 927.108 34.62C927.108 33.828 926.988 33.036 926.748 32.244C926.508 31.428 926.136 30.696 925.632 30.048C925.128 29.376 924.492 28.836 923.724 28.428C922.98 28.02 922.104 27.816 921.096 27.816ZM943.18 29.508C942.892 29.028 942.592 28.728 942.28 28.608C941.968 28.488 941.608 28.428 941.2 28.428C940.936 28.428 940.648 28.488 940.336 28.608C940.048 28.728 939.76 28.884 939.472 29.076C939.184 29.268 938.896 29.484 938.608 29.724C938.344 29.94 938.116 30.144 937.924 30.336V39.696C937.924 39.888 937.948 40.092 937.996 40.308C938.044 40.524 938.116 40.74 938.212 40.956C938.332 41.148 938.452 41.316 938.572 41.46C938.716 41.58 938.884 41.64 939.076 41.64V42H934.396V41.64C934.564 41.64 934.72 41.58 934.864 41.46C935.008 41.316 935.128 41.148 935.224 40.956C935.344 40.74 935.428 40.524 935.476 40.308C935.524 40.092 935.548 39.888 935.548 39.696V29.652C935.548 29.316 935.44 28.98 935.224 28.644C935.008 28.308 934.696 28.092 934.288 27.996V27.708L937.924 26.628V28.788C938.14 28.524 938.368 28.272 938.608 28.032C938.848 27.768 939.112 27.54 939.4 27.348C939.712 27.132 940.048 26.964 940.408 26.844C940.768 26.7 941.188 26.628 941.668 26.628C942.004 26.628 942.436 26.7 942.964 26.844C943.492 26.988 943.924 27.144 944.26 27.312L943.18 29.508ZM950.305 34.728C950.401 35.568 950.605 36.372 950.917 37.14C951.229 37.884 951.637 38.544 952.141 39.12C952.669 39.696 953.305 40.164 954.049 40.524C954.793 40.86 955.657 41.028 956.641 41.028C957.169 41.028 957.721 40.956 958.297 40.812C958.897 40.644 959.449 40.416 959.953 40.128C960.457 39.84 960.901 39.492 961.285 39.084C961.693 38.652 961.969 38.172 962.113 37.644H962.437V40.344C962.293 40.344 962.125 40.392 961.933 40.488C961.765 40.584 961.561 40.704 961.321 40.848C960.841 41.136 960.193 41.448 959.377 41.784C958.561 42.096 957.481 42.252 956.137 42.252C955.057 42.252 954.025 42.096 953.041 41.784C952.081 41.472 951.229 40.992 950.485 40.344C949.741 39.696 949.141 38.868 948.685 37.86C948.253 36.852 948.037 35.652 948.037 34.26C948.037 33.372 948.181 32.472 948.469 31.56C948.781 30.648 949.237 29.832 949.837 29.112C950.461 28.368 951.253 27.768 952.213 27.312C953.173 26.856 954.325 26.628 955.669 26.628C956.869 26.628 957.913 26.832 958.801 27.24C959.713 27.648 960.457 28.212 961.033 28.932C961.633 29.652 962.077 30.504 962.365 31.488C962.653 32.472 962.797 33.552 962.797 34.728H950.305ZM955.525 27.816C954.685 27.816 953.953 27.984 953.329 28.32C952.729 28.656 952.213 29.088 951.781 29.616C951.349 30.144 951.013 30.744 950.773 31.416C950.533 32.088 950.377 32.76 950.305 33.432H960.565C960.541 32.736 960.409 32.052 960.169 31.38C959.953 30.708 959.641 30.108 959.233 29.58C958.825 29.052 958.309 28.632 957.685 28.32C957.061 27.984 956.341 27.816 955.525 27.816ZM990.637 39.66C990.637 39.852 990.661 40.068 990.709 40.308C990.757 40.524 990.829 40.728 990.925 40.92C991.021 41.112 991.129 41.28 991.249 41.424C991.393 41.568 991.561 41.64 991.753 41.64V42H987.073V41.64C987.265 41.64 987.433 41.568 987.577 41.424C987.721 41.28 987.841 41.112 987.937 40.92C988.057 40.728 988.141 40.524 988.189 40.308C988.237 40.068 988.261 39.852 988.261 39.66V31.884C988.261 31.332 988.177 30.804 988.009 30.3C987.865 29.796 987.637 29.364 987.325 29.004C987.013 28.62 986.629 28.32 986.173 28.104C985.717 27.864 985.201 27.744 984.625 27.744C983.977 27.744 983.413 27.9 982.933 28.212C982.477 28.5 982.093 28.86 981.781 29.292C981.493 29.724 981.277 30.168 981.133 30.624C980.989 31.056 980.917 31.416 980.917 31.704V39.66C980.917 39.852 980.941 40.068 980.989 40.308C981.037 40.524 981.109 40.728 981.205 40.92C981.325 41.112 981.445 41.28 981.565 41.424C981.709 41.568 981.877 41.64 982.069 41.64V42H977.425V41.64C977.593 41.64 977.749 41.568 977.893 41.424C978.037 41.28 978.157 41.112 978.253 40.92C978.373 40.728 978.457 40.524 978.505 40.308C978.553 40.068 978.577 39.852 978.577 39.66V31.668C978.577 31.092 978.469 30.564 978.253 30.084C978.061 29.58 977.785 29.16 977.425 28.824C977.089 28.488 976.693 28.224 976.237 28.032C975.805 27.84 975.361 27.744 974.905 27.744C974.281 27.744 973.729 27.864 973.249 28.104C972.793 28.344 972.409 28.644 972.097 29.004C971.809 29.364 971.581 29.76 971.413 30.192C971.269 30.6 971.197 30.996 971.197 31.38V39.66C971.197 39.852 971.221 40.068 971.269 40.308C971.317 40.524 971.389 40.728 971.485 40.92C971.605 41.112 971.725 41.28 971.845 41.424C971.989 41.568 972.157 41.64 972.349 41.64V42H967.705V41.64C967.873 41.64 968.029 41.568 968.173 41.424C968.317 41.28 968.437 41.112 968.533 40.92C968.653 40.728 968.737 40.524 968.785 40.308C968.833 40.068 968.857 39.852 968.857 39.66V30.048C968.857 29.856 968.845 29.64 968.821 29.4C968.797 29.16 968.749 28.932 968.677 28.716C968.605 28.5 968.485 28.32 968.317 28.176C968.149 28.032 967.921 27.96 967.633 27.96V27.636L971.197 26.448V28.284C971.557 27.876 972.049 27.48 972.673 27.096C973.321 26.712 974.161 26.52 975.193 26.52C975.865 26.52 976.465 26.616 976.993 26.808C977.521 27 977.977 27.252 978.361 27.564C978.769 27.852 979.117 28.188 979.405 28.572C979.693 28.956 979.933 29.328 980.125 29.688C980.317 29.328 980.545 28.968 980.809 28.608C981.073 28.224 981.385 27.876 981.745 27.564C982.129 27.252 982.573 27 983.077 26.808C983.605 26.616 984.217 26.52 984.913 26.52C986.257 26.52 987.313 26.76 988.081 27.24C988.849 27.72 989.413 28.296 989.773 28.968C990.157 29.64 990.397 30.348 990.493 31.092C990.589 31.812 990.637 32.424 990.637 32.928V39.66Z" fill="white"/>
<defs>
<filter id="filter0_b_1_44844" x="-4" y="-4" width="1068" height="61" filterUnits="userSpaceOnUse" color-interpolation-filters="sRGB">
<feFlood flood-opacity="0" result="BackgroundImageFix"/>
<feGaussianBlur in="BackgroundImageFix" stdDeviation="2"/>
<feComposite in2="SourceAlpha" operator="in" result="effect1_backgroundBlur_1_44844"/>
<feBlend mode="normal" in="SourceGraphic" in2="effect1_backgroundBlur_1_44844" result="shape"/>
</filter>
<linearGradient id="paint0_linear_1_44844" x1="530" y1="0" x2="530" y2="53" gradientUnits="userSpaceOnUse">
<stop/>
<stop offset="1" stop-opacity="0.7"/>
</linearGradient>
</defs>
</svg>
