<svg width="35" height="35" viewBox="0 0 35 35" fill="none" xmlns="http://www.w3.org/2000/svg">
<g id="mingcute:back-line" clip-path="url(#clip0_139_536)">
<g id="Group">
<path id="Vector" fill-rule="evenodd" clip-rule="evenodd" d="M4.486 8.19178C4.59646 7.92537 4.78344 7.69769 5.02329 7.53753C5.26314 7.37737 5.54509 7.29192 5.8335 7.29199H20.4168C21.7574 7.29199 23.0849 7.55604 24.3234 8.06906C25.5619 8.58207 26.6873 9.33401 27.6352 10.2819C28.5831 11.2299 29.3351 12.3552 29.8481 13.5938C30.3611 14.8323 30.6252 16.1597 30.6252 17.5003C30.6252 18.8409 30.3611 20.1684 29.8481 21.4069C29.3351 22.6454 28.5831 23.7708 27.6352 24.7187C26.6873 25.6666 25.5619 26.4186 24.3234 26.9316C23.0849 27.4446 21.7574 27.7087 20.4168 27.7087H7.29184C6.90506 27.7087 6.53413 27.555 6.26064 27.2815C5.98715 27.008 5.8335 26.6371 5.8335 26.2503C5.8335 25.8636 5.98715 25.4926 6.26064 25.2191C6.53413 24.9456 6.90506 24.792 7.29184 24.792H20.4168C22.3507 24.792 24.2054 24.0238 25.5728 22.6563C26.9403 21.2889 27.7085 19.4342 27.7085 17.5003C27.7085 15.5665 26.9403 13.7118 25.5728 12.3443C24.2054 10.9769 22.3507 10.2087 20.4168 10.2087H9.35392L11.9687 12.8235C12.2344 13.0985 12.3813 13.4669 12.378 13.8492C12.3747 14.2316 12.2213 14.5974 11.9509 14.8678C11.6806 15.1382 11.3148 15.2915 10.9324 15.2948C10.5501 15.2982 10.1817 15.1512 9.90663 14.8855L4.80246 9.78137C4.59839 9.57743 4.4594 9.31754 4.40307 9.03459C4.34674 8.75163 4.3756 8.45833 4.486 8.19178Z" fill="white"/>
</g>
</g>
<defs>
<clipPath id="clip0_139_536">
<rect width="35" height="35" fill="white"/>
</clipPath>
</defs>
</svg>
